<svg width="626" height="607" viewBox="0 0 626 607" fill="none" xmlns="http://www.w3.org/2000/svg">
<path d="M511.902 500.758H491.253L493.962 508.038C489.524 509.483 479.428 512.796 474.895 514.099C470.674 515.313 469.517 520.215 472.881 522.495C474.288 523.449 476.173 523.92 478 523.913L508.812 523.803C513.095 523.787 515.922 522.654 516.495 519.026C516.627 518.195 516.555 517.341 516.328 516.531L511.902 500.758Z" fill="#072C4E"/>
<path d="M395.583 500.9H373.687L376.092 508.02C371.654 509.466 361.268 512.907 356.736 514.21C352.515 515.423 351.358 520.324 354.722 522.605C356.129 523.559 358.014 523.92 359.841 523.914H393.129C393.177 523.914 393.225 523.913 393.273 523.912C398.294 523.851 401.735 518.804 400.089 514.056L395.583 500.9Z" fill="#072C4E"/>
<path d="M465.626 298.256C465.626 298.256 480.342 340.202 493.598 383.272C499.537 402.567 520.026 475.682 526.289 493.641C527.413 496.863 525.023 500.598 521.613 500.598H481.05C476.756 500.598 472.188 497.24 470.894 493.141C442.359 402.7 425.858 316.474 425.858 316.474C425.858 316.374 392.715 373.019 385.942 384.595C385.17 385.915 384.934 387.474 385.283 388.963C388.28 401.772 403.04 464.434 411.928 494.473C412.801 497.425 410.668 500.509 407.591 500.533C407.57 500.533 407.548 500.534 407.527 500.533H369.157C366.117 500.533 362.922 498.144 362.048 495.229C351.668 460.65 344.28 426.805 338.01 395.643C335.272 382.043 337.911 374.924 348.794 358.982C361.202 340.805 391.26 292.297 394.63 288.924" stroke="#082C4E" stroke-width="1.17148" stroke-linecap="round" stroke-linejoin="round"/>
<path d="M172.396 501.105H151.748L151.373 506.963C146.935 508.408 135.253 512.196 130.72 513.499C126.5 514.712 125.343 519.614 128.707 521.895C130.113 522.848 132.133 523.209 133.96 523.203H163.4C168.231 523.185 171.208 521.745 171.191 516.909L172.396 501.105Z" fill="#072C4E"/>
<path d="M278.394 500.544H300.29L306.094 506.962C310.532 508.408 322.214 512.196 326.746 513.499C330.967 514.712 332.123 519.614 328.759 521.895C327.353 522.848 325.467 523.208 323.64 523.202H290.352C285.522 523.184 282.959 521.146 282.031 517.274L278.394 500.544Z" fill="#072C4E"/>
<path d="M261.283 329.913C283.524 371.493 316.611 450.685 325.837 492.851C326.61 496.386 323.953 500.492 320.339 500.546H269.8C266.938 500.589 263.833 497.043 263.409 494.209C256.333 446.987 208.371 332.218 201.406 308.827C201.406 308.827 193.584 455.037 193.063 490.633C192.988 495.788 189.549 501.166 184.398 501.166H142.309C136.595 501.166 132.196 496.12 132.973 490.453C142.825 418.616 149.66 339.249 158.944 295.67" stroke="#082C4E" stroke-width="1.17148" stroke-linecap="round" stroke-linejoin="round"/>
<path d="M232.973 292.634C236.568 299.044 241.82 306.076 245.106 310.177" stroke="#082C4E" stroke-width="1.17148" stroke-linecap="round" stroke-linejoin="round"/>
<path d="M120.747 522.182C239.175 524.713 338.572 523.627 338.572 523.627" stroke="#082C4E" stroke-width="1.17148" stroke-linecap="round" stroke-linejoin="round"/>
<path d="M358.456 522.829C375.179 523.186 388.949 523.326 402.97 523.503C488.241 524.581 524.773 523.616 524.773 523.616" stroke="#082C4E" stroke-width="1.17148" stroke-linecap="round" stroke-linejoin="round"/>
<path d="M293.199 164.768C293.199 164.768 315.799 197.202 346.359 213.159C376.246 228.759 414.686 229.09 416.364 229.096" stroke="#092C4E" stroke-width="28.7013" stroke-linejoin="round"/>
<path d="M293.199 164.768C293.199 164.768 315.799 197.202 346.359 213.159C376.246 228.759 414.686 229.09 416.364 229.096" stroke="#FFCC00" stroke-width="26.3583"/>
<path d="M302.421 153.292L277.991 172.46L281.658 175.129L305.919 159.202L302.421 153.292Z" fill="#FFCC00"/>
<path d="M289.94 165.571C286.267 164.774 282.376 157.291 281.29 154C280.453 151.467 281.037 149.531 283.279 148.526C286.508 147.078 290.797 150.858 291.448 151.662" stroke="#082C4E" stroke-width="1.17148" stroke-linecap="round" stroke-linejoin="round"/>
<path d="M289.447 155.797C290.225 156.671 292.105 159.86 292.588 160.925" stroke="#082C4E" stroke-width="1.17148" stroke-linecap="round" stroke-linejoin="round"/>
<path d="M280.345 152.549C276.351 151.718 275.667 155.277 275.924 157.187C276.579 162.062 280.915 168.279 283.509 170.557C284.302 171.252 285.517 171.446 286.505 171.081C287.493 170.717 288.202 169.566 287.859 168.57" stroke="#082C4E" stroke-width="1.17148" stroke-linecap="round" stroke-linejoin="round"/>
<path d="M275.563 156.379C272.356 156.295 271.566 159.725 272.092 162.408C272.996 167.022 276.681 170.767 278.851 172.308C279.903 173.054 282.799 173.767 283.738 171.16" stroke="#082C4E" stroke-width="1.17148" stroke-linecap="round" stroke-linejoin="round"/>
<path d="M307.196 156.914C307.196 156.914 304.344 154.628 297.524 144.856C293.952 139.739 291.988 136.738 290.116 134.932C287.789 132.688 285.69 131.914 284.525 133.191C283.212 134.631 284.646 139.303 286.305 142.638C289.234 148.524 296.585 159.652 298.606 162.219" stroke="#082C4E" stroke-width="1.17148" stroke-linecap="round" stroke-linejoin="round"/>
<path d="M307.161 166.043C304.081 163.577 293.722 160.891 291.308 160.967C288.283 161.062 288.405 164.301 290.644 166.193C293.444 168.561 298.339 169.92 298.749 169.939C299.855 169.992 293.643 171.611 293.013 175.742" stroke="#082C4E" stroke-width="1.17148" stroke-linecap="round" stroke-linejoin="round"/>
<path d="M509.074 353.674C509.074 353.674 534.405 317.124 519.185 280.419C504.296 244.49 462.094 236.198 460.295 235.854" stroke="#092C4E" stroke-width="28.7013" stroke-linejoin="round"/>
<path d="M509.074 353.674C509.074 353.674 534.405 317.124 519.185 280.419C504.296 244.49 462.094 236.198 460.295 235.854" stroke="#FFCC00" stroke-width="26.3583"/>
<path d="M458.15 299.592L400.962 290.65C397.778 290.152 395.601 287.165 396.098 283.978L405.37 224.558C406.836 215.165 415.63 208.74 425.013 210.207L459.752 215.639C469.136 217.106 475.554 225.911 474.089 235.304L464.815 294.723C464.318 297.91 461.335 300.09 458.15 299.592Z" fill="#2F97F3"/>
<path d="M483.459 458.607L393.864 418.528L446.602 300.483L536.197 340.561L483.459 458.607Z" fill="white"/>
<path d="M419.742 402.185C434.635 382.931 449.562 363.703 464.521 344.5C465.526 343.21 466.638 341.846 468.212 341.403C469.828 340.947 471.53 341.577 473.09 342.196C478.504 344.344 483.917 346.492 489.331 348.64" stroke="#082C4E" stroke-width="1.17148" stroke-linecap="round" stroke-linejoin="round"/>
<path d="M421.055 404.899C424.189 405.812 434.224 410.202 434.224 410.202C434.224 410.202 453.504 386.391 454.096 386.278C454.417 386.218 467.05 391.363 466.899 391.864C463.859 401.964 461.79 412.377 459.648 419.339C459.523 419.748 475.884 427.033 476.164 426.912C476.668 426.695 477.091 425.024 477.21 424.488C479.278 415.161 488.379 370.855 488.676 363.778" stroke="#082C4E" stroke-width="1.17148" stroke-linecap="round" stroke-linejoin="round"/>
<path d="M461.029 374.674C461.029 374.674 468.391 378.051 470.386 378.827C470.82 378.996 474.516 356.126 474.516 356.126L461.029 374.674Z" stroke="#082C4E" stroke-width="1.17148" stroke-linecap="round" stroke-linejoin="round"/>
<path d="M495.677 344.485C492.497 349.479 483.265 358.684 486.016 360.852C489.294 363.435 495.868 355.716 498.759 351.815" stroke="#082C4E" stroke-width="1.17148" stroke-linecap="round" stroke-linejoin="round"/>
<path d="M493.361 369.449C493.284 372.1 496.701 371.535 498.593 370.451C503.579 367.594 506.996 362.052 509.434 358.072" stroke="#082C4E" stroke-width="1.17148" stroke-linecap="round" stroke-linejoin="round"/>
<path d="M499.821 349.687C497.976 353.102 497.545 355.009 493.022 360.881C490.586 364.042 487.022 368.271 489.245 369.54C493.731 372.1 501.251 361.389 504.662 355.243" stroke="#082C4E" stroke-width="1.17148" stroke-linecap="round" stroke-linejoin="round"/>
<path d="M499.028 372.173C499.446 372.867 500.787 373.841 502.954 372.965C506.542 371.516 510.237 368.823 512.165 365.466" stroke="#082C4E" stroke-width="1.17148" stroke-linecap="round" stroke-linejoin="round"/>
<path d="M495.631 344.343C495.631 344.343 503.592 334.423 505.666 321.611" stroke="#092C4E" stroke-width="1.17148"/>
<path d="M533.737 337.847C533.737 337.847 531.001 348.704 526.252 356.275" stroke="#092C4E" stroke-width="1.17148"/>
<path d="M395.953 243.691C395.953 243.691 399.938 244.643 413.106 243.227" stroke="#092C4E" stroke-width="1.17148"/>
<path d="M403.505 212.54C403.505 212.54 407.804 213.087 419.667 212.594" stroke="#092C4E" stroke-width="1.17148"/>
<path d="M473.338 256.925C473.338 256.925 469.147 254.242 459.633 253.062" stroke="#092C4E" stroke-width="1.17148"/>
<path d="M478.216 224.599C478.216 224.599 469.725 220.958 461.533 220.667" stroke="#092C4E" stroke-width="1.17148"/>
<path d="M440.748 193.427C440.748 193.427 435.297 197.104 429.163 194.083" stroke="#082C4E" stroke-width="1.17148" stroke-linecap="round" stroke-linejoin="round"/>
<path d="M433.205 184.656L430.047 189.739L432.767 191.193" stroke="#082C4E" stroke-width="1.17148" stroke-linecap="round" stroke-linejoin="round"/>
<path d="M432.936 183.883C432.786 186.116 430.856 187.805 428.625 187.655C426.394 187.505 424.707 185.574 424.857 183.34C425.006 181.107 426.936 179.418 429.167 179.568C431.398 179.718 433.085 181.649 432.936 183.883Z" stroke="#082C4E" stroke-width="1.17148" stroke-linecap="round" stroke-linejoin="round"/>
<path d="M443.024 185.018C442.874 187.251 440.944 188.94 438.713 188.79C436.483 188.64 434.795 186.709 434.946 184.476C435.095 182.243 437.025 180.554 439.255 180.703C441.486 180.853 443.173 182.784 443.024 185.018Z" stroke="#082C4E" stroke-width="1.17148" stroke-linecap="round" stroke-linejoin="round"/>
<path d="M433.225 184.36L434.946 184.476Z" fill="#2F97F3"/>
<path d="M433.225 184.36L434.946 184.476" stroke="#082C4E" stroke-width="1.17148" stroke-linecap="round" stroke-linejoin="round"/>
<path d="M447.474 170.272C445.352 167.477 442.088 165.575 438.314 165.322C431.388 164.857 425.397 170.1 424.933 177.033L441.271 178.129C442.799 181.254 445.846 182.348 448.426 182.857C451.085 183.381 452.286 184.748 452.589 186.402C452.666 186.821 452.719 187.267 452.77 187.729C453.359 187.513 454.001 187.41 454.668 187.455C457.214 187.626 459.139 189.83 458.968 192.378C458.864 193.933 458.002 195.254 456.768 196.011C458.256 197.072 460.052 197.736 462.008 197.868C462.023 197.868 462.038 197.868 462.054 197.87C463.25 195.599 464.002 193.049 464.184 190.324C464.863 180.197 457.446 171.402 447.474 170.272Z" fill="#FD6470"/>
<path d="M461.278 198.94C457.748 204.084 451.829 207.458 445.124 207.458C434.309 207.458 425.541 198.681 425.541 187.854C425.541 187.34 425.56 186.831 425.599 186.325" stroke="#082C4E" stroke-width="1.17148" stroke-linecap="round" stroke-linejoin="round"/>
<path d="M198.664 178.147L203.808 181.647L201.677 184.418" stroke="#082C4E" stroke-width="1.17148" stroke-linecap="round" stroke-linejoin="round"/>
<path d="M204.069 186.676C204.069 186.676 199.452 190.349 194.386 188.845C194.386 188.845 195.199 195.456 201.597 194.229" stroke="#082C4E" stroke-width="1.17148" stroke-linecap="round" stroke-linejoin="round"/>
<path d="M202.192 174.415C204.848 177.767 206.43 182.01 206.422 186.621C206.402 197.448 197.618 206.209 186.803 206.189C180.994 206.178 175.782 203.638 172.203 199.611" stroke="#082C4E" stroke-width="1.17148" stroke-linecap="round" stroke-linejoin="round"/>
<path d="M201.789 172.989C197.598 168.133 191.307 165.566 184.942 166.072C184.93 166.072 183.338 166.229 182.272 166.482C180.735 166.848 179.41 167.285 178.423 167.719C176.224 168.688 174.284 169.995 172.634 171.547C172.287 171.184 171.914 170.839 171.498 170.529C167.489 167.544 161.821 168.378 158.84 172.391C155.858 176.404 156.69 182.077 160.699 185.062C162.395 186.325 164.387 186.897 166.347 186.841C166.407 188.345 166.639 189.861 167.055 191.363C168.119 195.752 170.944 198.977 170.944 198.977C176.366 196.823 178.846 194.789 179.97 192.823C179.812 192.828 179.653 192.825 179.492 192.814C176.947 192.638 175.026 190.431 175.201 187.883C175.376 185.335 177.582 183.411 180.127 183.587C180.556 183.617 180.964 183.708 181.351 183.845C181.782 182.792 182.57 181.735 183.998 180.666C188.319 177.435 189.594 174.288 189.443 171.748C193.255 173.414 197.567 173.911 201.789 172.989Z" fill="#2F97F3"/>
<path d="M57.4339 477.973C57.4339 487.864 63.6296 496.302 72.3462 499.623C67.1871 502.346 63.6687 507.765 63.6687 514.009V522.379H102.426V514.009C102.426 507.765 98.9071 502.346 93.748 499.623C102.465 496.302 108.66 487.864 108.66 477.973V454.353H57.4339V477.973Z" fill="#2F97F3"/>
<path d="M66.6668 419.985C72.386 431.609 76.5495 443.998 79.0124 456.719" stroke="#082C4E" stroke-width="1.17148" stroke-linecap="round" stroke-linejoin="round"/>
<path d="M83.6766 455.581C86.0917 439.332 97.2698 418.19 100.864 414.873" stroke="#082C4E" stroke-width="1.17148" stroke-linecap="round" stroke-linejoin="round"/>
<path d="M74.5725 454.028C71.7806 450.557 69.1418 446.962 66.6668 443.259C65.0383 440.821 61.0406 433.821 64.2349 433C66.1147 432.517 68.8479 436.238 70.6213 438.42C65.5593 431.025 60.6955 422.893 60.498 413.93C60.4246 410.595 61.4525 406.948 64.3353 405.275C67.9495 403.177 71.4322 406.776 73.1173 409.699C78.2574 418.619 77.1048 425.105 78.2669 435.333C78.5243 434.511 78.678 432.021 79.9405 432.014C84.0238 431.991 82.4425 450.043 81.486 453.894" stroke="#082C4E" stroke-width="1.17148" stroke-linecap="round" stroke-linejoin="round"/>
<path d="M83.8458 433.203C85.2283 426.455 88.8249 410.911 93.3867 411.125C95.3596 411.218 95.4095 414.44 95.2383 415.322C96.9227 409.672 101.377 404.92 106.905 402.88C108.216 402.396 109.762 402.08 110.949 402.816C112.022 403.482 112.481 404.857 112.391 406.116C112.3 407.375 111.754 408.55 111.199 409.684C108.989 414.192 104.988 420.078 102.213 424.263C105.808 421.788 107.368 421.234 109.262 421.544C110.783 421.794 111.785 423.412 111.832 424.955C111.88 426.498 111.198 427.963 110.465 429.322C107.53 434.763 103.494 439.604 98.6718 443.469C100.055 443.673 101.805 442.451 102.663 443.556C102.88 443.836 102.952 444.205 102.955 444.56C102.966 446.137 101.789 447.447 100.62 448.502C97.6709 451.165 94.2812 453.335 90.6306 454.899" stroke="#082C4E" stroke-width="1.17148" stroke-linecap="round" stroke-linejoin="round"/>
<path d="M486.103 138.5H529.358V197.738H486.103V138.5Z" fill="#FD6470"/>
<path d="M491.963 144.736H523.469V191.112H491.963V144.736Z" stroke="#082C4E" stroke-width="1.17148" stroke-linecap="round" stroke-linejoin="round"/>
<path d="M512.605 162.992C512.605 167.402 509.033 170.976 504.628 170.976C500.223 170.976 496.652 167.402 496.652 162.992C496.652 158.583 500.223 155.008 504.628 155.008C509.033 155.008 512.605 158.583 512.605 162.992Z" stroke="#082C4E" stroke-width="1.17148" stroke-linecap="round" stroke-linejoin="round"/>
<path d="M508.111 180.647C508.111 177.293 510.827 174.575 514.177 174.575C517.528 174.575 520.244 177.293 520.244 180.647" stroke="#082C4E" stroke-width="1.17148" stroke-linecap="round" stroke-linejoin="round"/>
<path d="M266.337 323.447C298.712 307.804 324.714 289.685 316.081 257.508C302.847 208.18 221.516 216.615 221.516 216.615" stroke="#082C4E" stroke-width="1.17148" stroke-linecap="round" stroke-linejoin="round"/>
<path d="M228.369 247.09C228.369 247.09 273.864 241.073 285.325 258.785C293.264 271.055 288.74 283.597 270.945 293.871C263.243 298.319 250.834 302.045 243.083 306.607" stroke="#082C4E" stroke-width="1.17148" stroke-linecap="round" stroke-linejoin="round"/>
<path d="M257.884 322.351C256.178 325.366 254.201 330.062 253.924 333.906C253.887 334.435 253.961 335.274 254.32 335.663C254.946 336.343 256.083 335.909 256.813 335.343" stroke="#082C4E" stroke-width="1.17148" stroke-linecap="round" stroke-linejoin="round"/>
<path d="M247.921 307.711C245.723 309.871 243.512 312.044 241.701 314.54C239.89 317.034 238.481 319.891 238.085 322.949C238.004 323.572 238.021 324.322 238.541 324.674C238.816 324.86 239.174 324.881 239.502 324.827C240.702 324.627 241.548 323.58 242.294 322.619C244.446 319.848 246.731 317.181 249.14 314.631C246.753 318.359 244.335 322.148 243.068 326.39C242.904 326.938 242.758 327.509 242.831 328.077C242.904 328.645 243.241 329.213 243.781 329.4C244.284 329.575 244.838 329.393 245.318 329.162C247.497 328.116 249.05 326.11 250.33 324.057C251.608 322.005 253.109 319.371 254.036 318.106C251.794 321.34 248.728 326.427 247.942 331.15C247.69 332.66 247.993 333.934 248.812 334.412C249.824 335.001 251.01 333.763 251.355 333.356C253.944 330.319 255.967 325.443 257.799 322.491" stroke="#082C4E" stroke-width="1.17148" stroke-linecap="round" stroke-linejoin="round"/>
<path d="M153.095 123.441C153.095 123.441 87.3697 142.002 94.7503 190.812C101.989 238.664 167.761 237.915 170.323 237.868" stroke="#092C4E" stroke-width="28.7013" stroke-linejoin="round"/>
<path d="M153.095 123.441C153.095 123.441 87.3697 142.002 94.7503 190.812C101.989 238.664 167.761 237.915 170.323 237.868" stroke="#FFCC00" stroke-width="26.3583"/>
<path d="M249.46 97.6791L247.943 92.8501C247.539 91.5641 246.435 90.6247 245.102 90.4332L201.343 84.1395C199.928 83.9365 198.485 84.1585 197.197 84.7786L171.546 98.7195C169.96 94.71 165.474 92.6541 161.39 94.125L154.612 96.5671C150.446 98.0671 148.285 102.662 149.783 106.83L162.267 141.56C163.765 145.728 168.356 147.891 172.522 146.391L179.3 143.949C182.664 142.737 184.718 139.507 184.596 136.113L212.346 133.29C213.828 133.117 215.216 132.473 216.306 131.452L248.512 101.289C249.496 100.368 249.864 98.9644 249.46 97.6791Z" fill="white"/>
<path d="M248.79 95.5595L214.765 106.271" stroke="#082C4E" stroke-width="1.17148" stroke-linecap="round" stroke-linejoin="round"/>
<path d="M203.731 109.745C202.773 106.695 204.467 103.444 207.514 102.485C210.562 101.526 213.809 103.221 214.767 106.27C215.726 109.32 214.032 112.571 210.985 113.531C207.937 114.49 204.69 112.794 203.731 109.745Z" stroke="#082C4E" stroke-width="1.17148" stroke-linecap="round" stroke-linejoin="round"/>
<path d="M147.307 110.629L154.919 137.753L158.822 137.628L150.331 108.617L147.307 110.629Z" fill="#FFCC00"/>
<path d="M146.277 122.093C150.265 120.035 156.269 118.24 160.8 115.621C165.173 113.093 163.707 110.76 159.686 111.342C156.68 111.778 149.336 113.552 143.892 116.021" stroke="#082C4E" stroke-width="1.17148" stroke-linecap="round" stroke-linejoin="round"/>
<path d="M148.494 128.175C149.814 127.325 167.901 121.692 165.924 118.531C163.952 115.379 148.865 121.544 146.365 122.174" stroke="#082C4E" stroke-width="1.17148" stroke-linecap="round" stroke-linejoin="round"/>
<path d="M150.973 133.342C163.312 128.161 168.679 126.372 167.529 124.178C166.397 122.019 155.473 126.023 148.662 128.167" stroke="#082C4E" stroke-width="1.17148" stroke-linecap="round" stroke-linejoin="round"/>
<path d="M234.725 281.487C233.97 272.197 225.978 265.238 216.745 265.696C223.074 262.663 227.15 255.907 226.436 248.51L224.231 225.665C223.318 216.202 214.915 209.271 205.461 210.186L173.131 213.313C163.678 214.227 156.755 222.639 157.669 232.101L159.873 254.946C160.539 261.851 165.196 267.403 171.337 269.547C163.078 271.376 157.226 279.068 157.931 287.744C158.701 297.22 166.999 304.275 176.465 303.504L218.981 300.041C228.447 299.269 235.496 290.962 234.725 281.487Z" fill="#FD6470"/>
</svg>
